<svg width="137" height="42" viewBox="0 0 137 42" fill="none" xmlns="http://www.w3.org/2000/svg">
<path d="M8.66091 34.3312H3.50934V21.3517H0V17.1259H3.50921V14.1189C3.50921 10.5556 5.06133 8 10.199 8C11.2856 8 12.9915 8.22136 12.9915 8.22136V12.1453H11.1997C9.37401 12.1453 8.66118 12.7066 8.66118 14.2583V17.1259H12.9231L12.5436 21.3517H8.66104L8.66091 34.3312ZM20.4813 16.7882C20.4062 16.7882 20.329 16.7909 20.2526 16.7928C15.4757 16.7928 13.2902 20.4244 13.2902 25.5795C13.2902 32.0735 16.1251 34.6726 20.2899 34.6726C22.6727 34.6726 24.2382 33.6589 25.1898 31.7673V34.3329H30.0896V17.1277H25.1898V19.7736C24.4128 18.0713 22.8035 16.8083 20.4813 16.7882ZM21.7272 20.8537C23.7335 20.8537 24.9377 22.2681 24.9377 24.6739L24.9423 27.1311C24.9423 28.7526 23.9477 30.6496 21.7272 30.6496C18.3134 30.6496 18.4046 26.9241 18.4046 25.6833C18.4046 21.5094 20.2235 20.8537 21.7272 20.8537ZM32.0685 25.7312C32.0685 23.6405 31.9695 16.7993 40.7882 16.7993C44.3281 16.7993 45.8063 17.9369 45.8063 17.9369L44.6182 21.6612C44.6182 21.6612 43.142 20.8396 41.2184 20.8396C38.7547 20.8396 37.1826 22.2831 37.1826 24.823L37.1853 26.6441C37.1853 29.0846 38.7022 30.7137 41.2235 30.7137C42.9759 30.7137 44.591 29.8844 44.591 29.8844L45.7761 33.5308C45.7761 33.5308 44.4245 34.6756 40.8129 34.6756C32.4161 34.6756 32.0686 28.5378 32.0686 25.7312H32.0685ZM74.536 16.7928C79.313 16.7928 81.533 20.4244 81.533 25.5795C81.533 32.0735 78.6979 34.6726 74.5332 34.6726C72.1504 34.6726 70.3889 33.6591 69.4374 31.7673V34.3329L64.5992 34.331V8.52314L69.7361 8.07033V19.5405C70.4775 17.5338 72.914 16.7928 74.5362 16.7928H74.536ZM73.0959 20.8537C71.0896 20.8537 69.7361 22.2681 69.7361 24.6739L69.7313 27.1311C69.7283 28.7526 70.6686 30.6496 73.0959 30.6496C76.5097 30.6496 76.4185 26.9241 76.4185 25.6833C76.4185 21.5094 74.5997 20.8537 73.0959 20.8537ZM54.7193 16.8071C49.3013 16.8071 46.4409 19.7927 46.4409 25.0984V26.0841C46.4409 32.9704 50.4577 34.7433 55.2466 34.7433C59.9014 34.7433 62.0083 33.4275 62.0083 33.4275L61.047 29.9233C61.047 29.9233 58.5687 30.9891 55.8625 30.9891C53.0571 30.9891 51.8506 30.2664 51.5414 27.5416H62.419V24.7304C62.419 18.9751 59.2088 16.8069 54.7192 16.8069L54.7193 16.8071ZM54.8499 20.3159C56.7253 20.3159 57.9406 21.4783 57.8739 24.174H51.5508C51.6604 21.3368 52.971 20.3161 54.8499 20.3161V20.3159ZM91.7758 16.7835C86.2119 16.7835 83.2828 19.9524 83.2828 25.6313C83.2828 33.4231 88.332 34.6773 91.7851 34.6773C96.8403 34.6773 100.203 31.9266 100.203 25.702C100.203 19.2234 96.4219 16.7835 91.7758 16.7835ZM91.7058 20.8678C94.1523 20.8678 95.1218 22.7184 95.1218 24.8249V26.636C95.1218 29.1878 93.7653 30.6638 91.6965 30.6638C89.7617 30.6638 88.402 29.2832 88.402 26.636V24.8249C88.402 22.0017 90.02 20.8678 91.7058 20.8678ZM110.437 16.7835C104.873 16.7835 101.944 19.9524 101.944 25.6313C101.944 33.4231 106.993 34.6773 110.446 34.6773C115.501 34.6773 118.865 31.9266 118.865 25.702C118.865 19.2234 115.083 16.7835 110.437 16.7835ZM110.367 20.8678C112.814 20.8678 113.783 22.7184 113.783 24.8249V26.636C113.783 29.1878 112.427 30.6638 110.358 30.6638C108.423 30.6638 107.063 29.2832 107.063 26.636V24.8249C107.063 22.0017 108.681 20.8678 110.367 20.8678ZM120.806 34.3312V8.52314L125.958 8.07033V25.3685L131.069 17.1259H136.51L131.178 25.6628L136.715 34.3312H131.259L125.958 25.9143V34.3312H120.806Z" fill="#AFB3BF"/>
</svg>
