<svg width="112" height="42" viewBox="0 0 112 42" fill="none" xmlns="http://www.w3.org/2000/svg">
<path d="M13.756 3H14.7493C18.1975 3.07576 21.5896 4.47738 24.0258 6.95862C23.1263 7.88671 22.208 8.77693 21.3272 9.70503C19.9591 8.45494 18.31 7.48896 16.5109 7.14802C13.8498 6.5798 10.9825 7.0912 8.75235 8.6254C6.31608 10.2354 4.66692 12.9628 4.31085 15.8797C3.9173 18.7587 4.72314 21.7892 6.57845 24.0242C8.35879 26.2024 11.0762 27.5662 13.8872 27.6609C16.5109 27.8124 19.247 26.9979 21.1585 25.1417C22.6578 23.8348 23.3512 21.846 23.5761 19.9141C20.4651 19.9141 17.3542 19.933 14.2433 19.9141V16.0123H27.3429C28.0175 20.1982 27.043 24.9144 23.8946 27.9071C21.7957 30.0285 18.8909 31.2785 15.9299 31.5248C13.0627 31.8089 10.1017 31.2596 7.55295 29.858C4.49826 28.2101 2.062 25.4258 0.862607 22.1491C-0.261821 19.1375 -0.280562 15.7282 0.768905 12.6977C1.72467 9.93231 3.56123 7.48896 5.92253 5.78429C8.19013 4.09856 10.945 3.17047 13.756 3Z" fill="#AFB3BF"/>
<path d="M88.9058 3.98511H92.9162V31.0325C91.5856 31.0325 90.2363 31.0514 88.9058 31.0135C88.9245 22.0167 88.9058 13.0009 88.9058 3.98511Z" fill="#AFB3BF"/>
<path d="M36.2627 13.3606C38.7365 12.8871 41.4164 13.4175 43.4591 14.9138C45.3144 16.2396 46.6075 18.3231 47.001 20.596C47.507 23.2287 46.8698 26.1077 45.1832 28.1911C43.3654 30.5208 40.3856 31.7709 37.4809 31.5815C34.8197 31.43 32.2335 30.0852 30.6593 27.8881C28.879 25.4637 28.4479 22.1301 29.4224 19.2891C30.3969 16.2396 33.1518 13.9099 36.2627 13.3606ZM36.8249 16.9594C35.8129 17.2245 34.8759 17.8117 34.2013 18.6451C32.3834 20.8422 32.4959 24.422 34.5011 26.4675C35.6443 27.6419 37.3684 28.1911 38.9613 27.8691C40.4418 27.604 41.7349 26.6001 42.4471 25.2743C43.684 23.0204 43.3279 19.9141 41.4351 18.1526C40.217 17.0162 38.4366 16.5427 36.8249 16.9594Z" fill="#AFB3BF"/>
<path d="M56.1262 13.3606C58.956 12.8113 62.0482 13.6068 64.1659 15.6145C67.6141 18.7398 67.9889 24.5925 65.0467 28.1912C63.2663 30.4641 60.3803 31.7142 57.5317 31.5816C54.8144 31.5058 52.1345 30.1421 50.5228 27.8882C48.705 25.4069 48.3114 21.9976 49.3422 19.0996C50.3729 16.1449 53.0715 13.8909 56.1262 13.3606ZM56.6884 16.9593C55.6764 17.2245 54.7394 17.8117 54.0648 18.6261C52.2657 20.7854 52.3406 24.3083 54.2709 26.3729C55.4141 27.604 57.1944 28.2102 58.8436 27.8692C60.3053 27.5851 61.6172 26.6002 62.3293 25.2743C63.5474 23.0014 63.1914 19.8951 61.2798 18.1337C60.0617 16.9972 58.2814 16.5426 56.6884 16.9593Z" fill="#AFB3BF"/>
<path d="M72.976 14.4592C75.1312 13.0955 77.9985 12.7167 80.3223 13.891C81.0532 14.213 81.6529 14.7623 82.2338 15.3116C82.2526 14.8002 82.2338 14.2698 82.2526 13.7395C83.5082 13.7584 84.7638 13.7395 86.0382 13.7584V30.4641C86.0194 32.9833 85.3823 35.6539 83.5832 37.4911C81.6154 39.5178 78.5982 40.1428 75.8808 39.7261C72.976 39.2905 70.4461 37.1502 69.3216 34.4417C70.4461 33.8924 71.6267 33.4568 72.7886 32.9454C73.4446 34.4985 74.7751 35.8244 76.443 36.1274C78.1109 36.4305 80.0412 36.0138 81.1282 34.6122C82.2901 33.1727 82.2901 31.2028 82.2338 29.4413C81.3718 30.2937 80.3785 31.0513 79.1791 31.3354C76.5742 32.0741 73.7069 31.1649 71.7017 29.3845C69.6777 27.6041 68.4783 24.8577 68.5908 22.1302C68.647 19.0429 70.3711 16.0692 72.976 14.4592ZM76.8553 16.8836C75.7122 17.0731 74.6439 17.717 73.9131 18.6073C72.1515 20.7286 72.1515 24.119 73.9318 26.2025C74.9438 27.4336 76.5742 28.1155 78.1484 27.945C79.6289 27.7935 80.997 26.8465 81.7279 25.5396C82.9647 23.3235 82.7586 20.3119 81.0907 18.38C80.06 17.1867 78.4108 16.5995 76.8553 16.8836Z" fill="#AFB3BF"/>
<path d="M97.7294 15.4253C99.9782 13.304 103.445 12.5842 106.331 13.7017C109.067 14.7435 110.81 17.3762 111.691 20.0847C107.624 21.7894 103.576 23.4751 99.5097 25.1798C100.072 26.2594 100.934 27.2443 102.096 27.6421C103.726 28.2293 105.675 28.0209 107.043 26.9223C107.587 26.5056 108.018 25.9564 108.43 25.426C109.461 26.1268 110.492 26.8087 111.522 27.5095C110.061 29.7256 107.606 31.2787 104.963 31.5249C102.04 31.8848 98.9288 30.7484 97.036 28.4376C93.9251 24.801 94.2249 18.7021 97.7294 15.4253ZM99.7346 18.9294C99.0974 19.8575 98.8351 20.9939 98.8538 22.1114C101.571 20.975 104.289 19.8385 107.006 18.6831C106.556 17.6224 105.469 16.9785 104.364 16.808C102.583 16.486 100.728 17.452 99.7346 18.9294Z" fill="#AFB3BF"/>
</svg>
