<svg width="109" height="42" viewBox="0 0 109 42" fill="none" xmlns="http://www.w3.org/2000/svg">
<path d="M103.609 9.6538H98.8564V3H88.4204L83.6211 9.6538H75.0929L72.2412 12.5054V9.6538H65.5874V3H44.6755V9.6538H15.2562L10.456 3H0V25.813L13.3076 39.1206H26.6152V35.3184L30.4174 39.1206H56.082V35.3184L59.8842 39.1206H72.2412V35.3184L76.0434 39.1206H99.807L108.362 30.5657V14.4065L103.609 9.6538ZM16.1592 19.1592H9.50543V21.0603H16.1592V28.6646H5.70326L1.90109 24.8625V4.90109H9.50543V11.5549H16.1592V19.1592ZM44.6755 28.6646H21.8625L18.0603 24.8625V11.5549H25.6646V21.0603H27.5657V11.5549H35.1701V21.0603H37.0712V11.5549H44.6755V28.6646ZM54.1809 28.6646H46.5766V11.5549H54.1809V28.6646ZM54.1809 9.6538H46.5766V4.90109H54.1809V9.6538ZM70.3401 19.1592H63.6864V21.0603H70.3401V28.6646H59.8842L56.082 24.8625V4.90109H63.6864V11.5549H70.3401V19.1592ZM87.4499 19.1592H79.8456V21.0603H87.4499V28.6646H76.0434L72.2412 24.8625V15.3571L76.0434 11.5549H87.4499V19.1592ZM106.461 28.6646H98.8564V19.1592H96.9553V28.6646H89.351V4.90109H96.9553V11.5549H102.659L106.461 15.3571V28.6646Z" fill="#AFB3BF"/>
</svg>
