<svg width="126" height="42" viewBox="0 0 126 42" fill="none" xmlns="http://www.w3.org/2000/svg">
<path d="M20.9953 35.0751L12.746 34.9225C10.075 34.8694 7.39746 34.9756 4.77896 34.4251C0.795412 33.6026 0.513217 29.5699 0.217897 26.1872C-0.188989 21.4315 -0.031485 16.5896 0.736348 11.8737C1.16948 9.22723 2.87578 7.64863 5.51398 7.47618C14.4195 6.8527 23.3841 6.92566 32.27 7.2175C33.2085 7.24403 34.1535 7.38996 35.0788 7.55577C39.6465 8.36497 39.758 12.9349 40.0533 16.7819C40.3487 20.6687 40.224 24.5754 39.6596 28.4357C39.2067 31.6327 38.3405 34.3123 34.6851 34.571C30.1043 34.9092 25.6286 35.1812 21.0347 35.095C21.0347 35.0751 21.0084 35.0751 20.9953 35.0751ZM16.1455 26.9831C19.5975 24.98 22.9838 23.0101 26.4161 21.0203C22.9576 19.0172 19.5778 17.0472 16.1455 15.0574V26.9831Z" fill="#AFB3BF"/>
<path d="M106.221 31.4403C106.063 32.0903 105.926 32.601 105.788 33.1449H102.559V7.97339H106.326V17.2593C106.523 17.0073 106.621 16.9012 106.707 16.7884C107.35 15.893 108.183 15.3093 109.26 15.0838C110.972 14.7455 112.436 15.5083 112.954 17.1731C113.289 18.2078 113.506 19.3155 113.532 20.3967C113.584 23.1758 113.545 25.9483 113.446 28.7275C113.407 29.5765 113.151 30.4454 112.83 31.2413C111.773 33.8679 108.321 34.2659 106.608 31.9908C106.503 31.8515 106.405 31.699 106.221 31.4403ZM106.405 24.5156V29.1188C106.405 29.8683 106.799 30.326 107.54 30.4984C108.269 30.6709 108.859 30.3857 109.155 29.7025C109.279 29.4173 109.404 29.1188 109.41 28.8203C109.483 26.008 109.548 23.1957 109.568 20.3768C109.568 19.8528 109.443 19.3089 109.286 18.7981C108.99 17.8762 108.177 17.6042 107.376 18.1415C106.772 18.5527 106.405 19.1364 106.405 19.9125V24.5156ZM96.167 15.4419H100.111V33.1582H97.0333C96.9217 32.4883 96.8101 31.7985 96.6789 30.9893C96.4689 31.301 96.3442 31.5 96.2129 31.699C95.1892 33.1914 93.7388 33.7021 92.026 33.4301C90.5625 33.1914 89.6831 32.0505 89.4862 30.1801C89.4271 29.6229 89.4009 29.0591 89.4009 28.502C89.3878 24.3564 89.4009 20.1977 89.4009 16.0522V15.4287H93.391V16.1517C93.391 20.1579 93.3779 24.1575 93.4041 28.1637C93.4041 28.7341 93.4632 29.3244 93.5616 29.8949C93.6732 30.4785 94.0932 30.6908 94.6576 30.651C95.5698 30.578 96.1998 29.8949 96.1998 28.9795V16.2246C96.167 15.9659 96.167 15.7272 96.167 15.4419ZM69.0107 15.4287H72.9745V16.1782C72.9745 20.1645 72.9614 24.1442 72.9877 28.1173C72.9877 28.6877 73.0402 29.278 73.1583 29.8352C73.3092 30.4918 73.6899 30.7041 74.3396 30.6178C75.2387 30.4918 75.7834 29.8617 75.7899 28.9397V16.2511V15.4552H79.7341V33.1582H76.6693C76.5577 32.5015 76.4462 31.825 76.3018 30.9694C76.1049 31.2678 75.9934 31.4403 75.8818 31.6194C74.858 33.1383 73.4208 33.6955 71.6686 33.4235C70.2642 33.2113 69.4044 32.1633 69.1419 30.4454C69.0697 29.9081 69.0172 29.3775 69.0172 28.8402C69.0041 24.5355 69.0041 20.2109 69.0041 15.9062L69.0107 15.4287ZM66.9763 24.8871C66.9631 25.484 66.9238 26.081 66.8909 26.6779C66.74 28.4688 66.6678 31.0092 65.2371 32.3158C64.3249 33.1383 63.1699 33.4368 61.9755 33.4766C61.4439 33.4898 60.9058 33.4898 60.3742 33.4169C57.8607 33.0322 56.6926 31.9112 56.2725 29.1188C55.7935 25.8953 55.7541 22.6187 56.325 19.3951C56.9157 16.0588 58.9501 14.8782 62.1133 15.097C65.0665 15.3093 66.3856 17.266 66.7334 20.0518C66.9238 21.6503 67.0156 23.2687 66.9763 24.8871ZM62.9599 24.2769C62.9599 23.1426 62.9862 22.0018 62.9468 20.8676C62.9205 20.2109 62.8352 19.5477 62.6974 18.8976C62.5399 18.1481 62.0674 17.79 61.4767 17.8032C60.8992 17.8165 60.4923 18.1747 60.2823 18.8711C60.2101 19.1298 60.1314 19.3951 60.1314 19.6538C60.1314 21.4314 60.1183 23.2156 60.1051 24.9932C60.092 26.6514 59.882 28.3892 60.4005 29.9744C60.558 30.4586 60.9649 30.724 61.4964 30.724C62.0149 30.724 62.3561 30.4653 62.5465 30.001C62.6974 29.6428 62.8286 29.2515 62.8286 28.8668C62.8746 27.3412 62.9599 25.809 62.9599 24.2769ZM50.4843 20.9405C50.8321 19.2226 51.1602 17.5445 51.5212 15.8598C51.974 13.7174 52.4793 11.575 52.9256 9.42598C53.0372 8.90198 53.2472 8.77596 53.7394 8.78923C54.7959 8.82902 55.8722 8.80249 57.001 8.80249C56.6335 10.1689 56.2725 11.4689 55.9182 12.749C54.7959 16.7685 53.6737 20.8013 52.5646 24.834C52.4793 25.1458 52.4399 25.484 52.4399 25.8157C52.4268 28.0178 52.4399 30.2132 52.4399 32.4153V33.1317H48.5877C48.5745 32.9327 48.5483 32.7337 48.5483 32.5347C48.5483 31.2877 48.4499 30.0341 48.5614 28.8004C48.8436 25.8356 47.9117 23.1095 47.157 20.3502C46.1595 16.7022 45.1488 13.0409 44.1513 9.39281C44.0988 9.22036 44.0791 9.03464 44.0266 8.82239H47.9576C48.7845 12.8485 49.618 16.8746 50.4843 20.9405ZM125.856 25.5636H119.215C119.287 26.9101 119.314 28.1902 119.451 29.4571C119.55 30.3393 120.029 30.7173 120.784 30.724C121.571 30.7372 122.03 30.3393 122.214 29.4637C122.273 29.1785 122.313 28.8933 122.339 28.6015C122.365 28.3428 122.378 28.0642 122.398 27.6928C123.52 27.7525 124.616 27.8188 125.699 27.8652C126.329 29.7556 125.194 32.1832 123.284 32.9327C121.781 33.5296 120.239 33.5296 118.703 33.072C117.568 32.7337 116.721 32.0041 116.341 30.8831C115.986 29.8352 115.652 28.7407 115.579 27.6463C115.382 24.9468 115.31 22.2207 115.717 19.5145C115.789 19.0635 115.914 18.6323 116.052 18.1946C116.603 16.3904 117.804 15.2828 119.661 15.097C120.672 14.9975 121.715 15.0373 122.713 15.2098C124.327 15.495 125.187 16.669 125.561 18.2078C125.732 18.9308 125.856 19.6737 125.883 20.4099C125.889 22.1013 125.856 23.7794 125.856 25.5636ZM122.083 23.2355C122.083 21.9023 122.096 20.6487 122.07 19.3885C122.07 19.09 121.958 18.7782 121.847 18.493C121.624 17.9359 121.158 17.7833 120.6 17.7833C120.042 17.7833 119.688 18.0685 119.55 18.5793C119.13 20.1114 119.268 21.6768 119.281 23.2488C120.285 23.2355 121.197 23.2355 122.083 23.2355Z" fill="#AFB3BF"/>
<path d="M82.7788 12.0527H78.874V8.85571H90.5293V12.0328H86.6507V33.1319H82.7854L82.7788 12.0527Z" fill="#AFB3BF"/>
</svg>
